<?xml version="1.0" encoding="UTF-8" standalone="no"?>
<!-- Created with Inkscape (http://www.inkscape.org/) -->

<svg
   width="128.31169mm"
   height="18.359943mm"
   viewBox="0 0 128.31169 18.359943"
   version="1.1"
   id="svg1"
   xml:space="preserve"
   xmlns="http://www.w3.org/2000/svg"
   xmlns:svg="http://www.w3.org/2000/svg"><defs
     id="defs1"><linearGradient
       id="swatch15"><stop
         style="stop-color:#000000;stop-opacity:1;"
         offset="0"
         id="stop16" /></linearGradient><linearGradient
       id="swatch9"><stop
         style="stop-color:#006497;stop-opacity:1;"
         offset="0"
         id="stop9" /></linearGradient></defs><g
     id="layer1"
     transform="translate(-19.130103,-179.42308)"><path
       id="rect3-3-9"
       style="fill:#006497;fill-opacity:1;stroke:none;stroke-width:0.500858;stroke-linecap:round;stroke-linejoin:round;stroke-dasharray:none;stroke-opacity:1;paint-order:stroke fill markers"
       d="m -91.806823,119.77245 c 1.480505,-8e-5 2.680696,1.20016 2.680563,2.68066 0,0 -0.609462,13.26642 -4.06e-4,13.69206 0.609056,0.42564 58.258459,0 58.258459,0 l 0.365751,1.97789 h -60.221647 l -64.389717,-0.0223 c -1.45478,0.18947 -2.78773,-0.83621 -2.97731,-2.29098 l 2.9e-4,-2.29098 -2e-4,-2.2915 -2.3e-4,-2.29098 2.9e-4,-2.29098 -2.3e-4,-2.29098 2.9e-4,-2.29098 c 0,0 -0.0102,-0.5532 -0.0154,-1.11617 -0.005,-0.56078 -1.5e-4,-1.14096 0.015,-1.17444 9e-5,-2.1e-4 5.4e-4,-0.001 0.001,-0.002 0.0233,-0.0279 0.29045,-0.0279 0.68968,-0.0316 0.406,-0.004 0.94352,-0.001 1.47977,0.004 1.07249,0.01 2.1399,0.0293 2.1399,0.0293 h 4.31033 8.62067 17.24132 17.24081 z"
       transform="matrix(-0.99797877,0,-0.05325112,0.99859641,-3.9554941,59.853588)" /><path
       d="m 29.802013,182.62519 -1.797756,6.40081 h -0.07902 l -1.817512,-6.40081 h -2.568223 v 12.24846 h 2.568223 l -0.158044,-6.83543 h 0.07902 l 1.165579,4.10916 h 1.402645 l 1.165578,-4.10916 h 0.07902 l -0.158044,6.83543 h 2.667001 v -12.24846 z m 10.865545,0.86925 0.1778,-2.86456 h -2.943579 l -0.1778,2.86456 z m 3.002846,11.37921 0.237067,-2.09409 h -3.220156 v -7.90223 H 34.7804 l -0.217311,1.99531 3.299179,0.15805 v 5.74887 h -3.220157 v 2.09409 z m 10.213613,0 0.237066,-2.09409 h -2.943579 v -11.75457 h -5.472293 l -0.237066,2.01507 2.884313,0.15805 v 9.58145 h -2.923823 v 2.09409 z m 10.549456,0.23706 0.25682,-2.3114 c -3.990623,-0.0593 -5.47229,-0.51364 -5.788379,-2.17311 l 6.025446,-0.15805 c 0.3556,-3.65478 -0.968023,-5.8674 -3.83258,-5.8674 -2.667,0 -5.017913,2.37067 -5.017913,5.49205 0,3.25967 1.679224,5.19571 8.356606,5.01791 z m -3.852336,-8.23807 c 1.126066,0 1.580443,0.73096 1.63971,2.03482 -1.027287,0.0198 -2.469444,0.079 -3.3782,0.0988 0.09878,-1.58044 0.67169,-2.1336 1.73849,-2.1336 z m 14.263502,-2.1336 c -5.353759,-0.31609 -7.349069,1.34338 -7.349069,3.2004 0,2.52871 5.096933,2.94358 5.096933,4.03014 0,0.67169 -1.205087,0.84949 -4.820357,0.67169 l -0.09878,2.37067 c 5.926669,0.19755 7.862712,-1.30387 7.862712,-3.14114 0,-2.4892 -5.136446,-3.18065 -5.136446,-4.20794 0,-0.63217 1.20509,-0.80997 4.54378,-0.5334 z"
       id="text1-8-3-8"
       style="font-size:74.6667px;font-family:'Operator Mono';-inkscape-font-specification:'Operator Mono, Normal';white-space:pre;fill:#006497;fill-rule:evenodd;stroke:none;stroke-width:0.5;stroke-linecap:round;stroke-linejoin:round;stroke-dasharray:none;stroke-opacity:1;paint-order:stroke fill markers"
       aria-label="Miles" /><g
       id="g46"
       transform="matrix(0.99736903,0,0,0.99736903,0.34387015,1.044145)"><path
         style="font-style:italic;font-weight:bold;font-size:74.6667px;font-family:Alegreya;-inkscape-font-specification:'Alegreya, Bold Italic';white-space:pre;fill:#f9f9f9;stroke:#f9f9f9;stroke-width:1.53071;stroke-linecap:round;stroke-linejoin:round;paint-order:stroke fill markers"
         d="m 292.05958,245.75456 q 0,3.28534 -1.86667,5.824 -1.792,2.464 -5.74934,4.62934 -3.95733,2.09067 -10.528,4.18133 0,3.43467 1.26933,5.45067 1.26933,2.016 3.50934,2.016 2.09066,0 4.032,-1.49333 2.016,-1.568 3.50933,-4.40534 l 1.344,0.14934 2.31467,2.912 q -1.344,2.83733 -3.65867,5.07734 -2.31467,2.24 -5.07733,3.584 -2.688,1.26933 -5.45067,1.26933 -4.704,0 -7.54134,-3.50933 -2.76267,-3.50934 -2.76267,-9.48268 0,-4.55466 1.49334,-8.66133 1.568,-4.18134 4.18133,-7.46667 2.688,-3.28534 6.04801,-5.15201 3.43466,-1.94133 7.09333,-1.94133 3.65867,0 5.74934,1.86667 2.09067,1.792 2.09067,5.152 z"
         transform="matrix(0.26458333,0,0,0.26458333,66.757964,121.64032)"
         id="path42" /><path
         style="font-style:italic;font-weight:bold;font-size:74.6667px;font-family:Alegreya;-inkscape-font-specification:'Alegreya, Bold Italic';white-space:pre;fill:#f9f9f9;stroke:#f9f9f9;stroke-width:1.53071;stroke-linecap:round;stroke-linejoin:round;paint-order:stroke fill markers"
         d="m 241.06225,274.87457 -1.26933,-1.12 q -0.14933,-4.10667 -0.59733,-8.88533 -0.448,-4.85334 -1.04534,-9.48268 -0.52267,-4.62933 -1.19467,-7.98933 -0.29866,-1.568 -0.82133,-2.09067 -0.52267,-0.59733 -1.71733,-0.59733 -0.448,0 -1.26934,0.0747 -0.74666,0 -1.344,0.0747 -0.59733,0.0747 -0.59733,0.0747 l 0.29866,-4.18134 q 2.01601,-0.224 4.25601,-0.448 2.31466,-0.29867 4.256,-0.52267 2.016,-0.29866 3.28533,-0.448 1.26934,-0.14933 1.26934,-0.14933 l 0.82133,0.74667 q 0.672,5.67467 0.97067,12.544 0.37333,6.86934 0.37333,14.33601 h 0.896 q 3.73334,-6.496 5.67467,-11.12534 2.016,-4.704 2.016,-7.24267 0,-1.64267 -0.74666,-2.76267 -0.672,-1.19466 -1.568,-1.86666 -0.89601,-0.74667 -1.41867,-0.97067 l 0.52266,-2.31467 9.63201,-1.792 q 1.12,0.896 1.71733,2.61333 0.59734,1.71734 0.59734,3.80801 0,4.10667 -3.65867,11.424 -3.65867,7.24267 -11.20001,17.92001 z"
         transform="matrix(0.26458333,0,0,0.26458333,66.757964,121.64032)"
         id="path41" /><path
         style="font-style:italic;font-weight:bold;font-size:74.6667px;font-family:Alegreya;-inkscape-font-specification:'Alegreya, Bold Italic';white-space:pre;fill:#f9f9f9;stroke:#f9f9f9;stroke-width:1.53071;stroke-linecap:round;stroke-linejoin:round;paint-order:stroke fill markers"
         d="m 222.76895,232.76255 q -2.24,0 -3.36,-1.26933 -1.12,-1.26933 -1.12,-3.28533 0,-2.83734 1.792,-4.70401 1.86667,-1.94133 4.704,-1.94133 2.24,0 3.36,1.344 1.19467,1.26933 1.19467,3.21067 0,2.83733 -1.86667,4.77867 -1.86666,1.86666 -4.704,1.86666 z"
         transform="matrix(0.26458333,0,0,0.26458333,66.757964,121.64032)"
         id="path40" /><path
         id="path39"
         style="font-style:italic;font-weight:bold;font-size:74.6667px;font-family:Alegreya;-inkscape-font-specification:'Alegreya, Bold Italic';white-space:pre;fill:#f9f9f9;stroke:#f9f9f9;stroke-width:1.53071;stroke-linecap:round;stroke-linejoin:round;paint-order:stroke fill markers"
         d="m 205.96964,228.72972 -9.33398,2.61328 -0.22461,1.3457 c -0.0996,0.84622 -0.22372,1.94116 -0.37305,3.28516 -0.14933,1.29422 -0.32237,2.63748 -0.52148,4.03125 l -5.75,0.89648 -0.37305,3.4336 0.22266,0.37304 4.63085,0.0762 0.52149,0.44726 -3.73242,22.40039 c -0.29867,2.28978 0.14908,4.08078 1.34375,5.375 1.24444,1.29422 3.06184,1.94141 5.45117,1.94141 0.79644,0 1.79166,-0.42331 2.98633,-1.26953 1.24444,-0.896 2.5877,-2.09066 4.03125,-3.58399 1.49333,-1.49334 2.98713,-3.18462 4.48047,-5.07617 l -1.19532,-2.61328 -1.26953,-0.22461 c -1.59288,1.59289 -2.83642,2.71226 -3.73242,3.35937 -0.896,0.64711 -1.6429,0.97071 -2.24023,0.97071 -1.24445,0 -1.76748,-0.79579 -1.56836,-2.38867 l 3.6582,-19.03907 c 4.16441,-1.50592 9.64807,-0.11998 14.04102,0.32422 -0.28581,4.55961 -0.47729,9.62954 -1.19727,14.16016 -0.49778,3.43466 -1.12052,7.34221 -1.86719,11.72265 0,2.43912 1.14577,3.65821 3.43555,3.65821 0.94578,0 1.98988,-0.32359 3.13476,-0.97071 1.19467,-0.6471 2.56432,-1.66676 4.10743,-3.06054 1.59288,-1.39378 3.43472,-3.23562 5.52539,-5.52539 l -1.19531,-2.61328 -1.26954,-0.14844 c -1.89155,1.64267 -3.11065,2.68676 -3.6582,3.13476 -0.54756,0.448 -0.9953,0.67188 -1.34375,0.67188 l -0.22461,-0.29883 c 0.34845,-2.48889 0.79619,-5.22623 1.34375,-8.21289 0.59733,-3.03644 1.24452,-6.04849 1.94141,-9.03516 0.69688,-3.03644 1.3949,-5.74934 2.09179,-8.13867 l -0.89648,-1.11914 c -1.59289,0.0498 -3.25973,0.1495 -5.00195,0.29883 -4.34739,0.17728 -8.70377,0.13822 -13.05469,0.17773 l -4.86524,0.0449 c 0.39822,-1.84178 0.79514,-3.55751 1.19336,-5.1504 0.448,-1.59289 0.79799,-2.88726 1.04688,-3.88281 l 0.44726,-1.49414 z"
         transform="matrix(0.26458333,0,0,0.26458333,66.757964,121.64032)" /><path
         style="font-style:italic;font-weight:bold;font-size:74.6667px;font-family:Alegreya;-inkscape-font-specification:'Alegreya, Bold Italic';white-space:pre;fill:#f9f9f9;stroke:#f9f9f9;stroke-width:1.53071;stroke-linecap:round;stroke-linejoin:round;paint-order:stroke fill markers"
         d="m 179.16364,266.43724 q 0.37333,0 0.82133,-0.29867 0.52267,-0.29867 1.49333,-1.12 0.97067,-0.896 2.68801,-2.38934 l 1.26933,0.14934 1.19467,2.61333 q -3.65867,3.73334 -6.04801,5.82401 -2.31466,2.09066 -3.88266,2.912 -1.56801,0.82133 -3.06134,0.82133 -1.41867,0 -2.24,-0.74667 -0.82133,-0.672 -0.82133,-1.94133 0,-0.82133 0.672,-4.032 0.672,-3.21067 1.94133,-8.73601 l -0.59733,-0.0747 q -3.36,6.048 -6.27201,9.70667 -2.83733,3.65867 -5.824,5.824 -3.95733,0 -6.19734,-2.83733 -2.16533,-2.83734 -2.16533,-7.91467 0,-4.55467 1.49333,-8.96001 1.56801,-4.48 4.10667,-8.064 2.61334,-3.584 5.82401,-5.67467 3.21066,-2.16534 6.496,-2.16534 l 6.496,1.26934 0.52267,-1.64267 0.896,-0.448 5.74934,0.97067 0.59733,1.26933 q -1.04533,4.18134 -2.09067,8.81067 -1.04533,4.55467 -1.94133,8.88534 -0.82134,4.256 -1.344,7.69067 z"
         transform="matrix(0.26458333,0,0,0.26458333,66.757964,121.64032)"
         id="path36" /><path
         style="font-style:italic;font-weight:bold;font-size:74.6667px;font-family:Alegreya;-inkscape-font-specification:'Alegreya, Bold Italic';white-space:pre;fill:#f9f9f9;stroke:#f9f9f9;stroke-width:1.53071;stroke-linecap:round;stroke-linejoin:round;paint-order:stroke fill markers"
         d="m 149.81957,245.75456 q 0,3.28534 -1.86667,5.824 -1.792,2.464 -5.74933,4.62934 -3.95734,2.09067 -10.52801,4.18133 0,3.43467 1.26934,5.45067 1.26933,2.016 3.50933,2.016 2.09067,0 4.032,-1.49333 2.016,-1.568 3.50934,-4.40534 l 1.344,0.14934 2.31467,2.912 q -1.344,2.83733 -3.65867,5.07734 -2.31467,2.24 -5.07734,3.584 -2.688,1.26933 -5.45067,1.26933 -4.704,0 -7.54133,-3.50933 -2.76267,-3.50934 -2.76267,-9.48268 0,-4.55466 1.49333,-8.66133 1.568,-4.18134 4.18134,-7.46667 2.688,-3.28534 6.048,-5.15201 3.43467,-1.94133 7.09334,-1.94133 3.65867,0 5.74933,1.86667 2.09067,1.792 2.09067,5.152 z"
         transform="matrix(0.26458333,0,0,0.26458333,66.757964,121.64032)"
         id="path34" /><path
         style="font-style:italic;font-weight:bold;font-size:74.6667px;font-family:Alegreya;-inkscape-font-specification:'Alegreya, Bold Italic';white-space:pre;fill:#f9f9f9;stroke:#f9f9f9;stroke-width:1.53071;stroke-linecap:round;stroke-linejoin:round;paint-order:stroke fill markers"
         d="m 97.40354,273.53057 q 0,0 0.298667,-1.64266 0.298666,-1.71734 0.746667,-4.40534 0.448,-2.76267 0.970667,-5.89867 0.522667,-3.136 0.970669,-6.048 0.448,-2.98667 0.74666,-5.152 0.29867,-2.24001 0.29867,-2.98667 0,-1.49334 -0.672,-2.16534 -0.59733,-0.672 -2.165333,-0.672 h -2.613335 l 0.672001,-4.33067 q 2.016001,0 4.405337,-0.0747 2.464,-0.14934 4.62933,-0.224 2.24,-0.14934 3.65867,-0.224 1.41867,-0.0747 1.41867,-0.0747 l 0.896,1.19467 q 0,0 -0.59733,1.94133 -0.52267,1.86667 -1.26934,4.85334 -0.74666,2.912 -1.344,6.048 h 0.448 q 1.94134,-4.33067 4.18134,-7.54134 2.24,-3.28533 4.48,-5.152 2.31467,-1.94133 4.40533,-2.016 0.67201,0.37333 1.19467,1.41867 0.59734,1.04533 0.74667,2.09067 -0.14933,1.568 -0.52267,3.28533 -0.29866,1.71733 -0.74666,3.21067 -0.37334,1.49333 -0.67201,2.464 -0.29866,0.896 -0.29866,0.896 l -2.83734,0.14933 q 0.0747,-1.41866 -0.29866,-2.016 -0.37334,-0.59733 -1.04534,-0.59733 -2.16533,0 -5.07733,4.032 -2.83734,3.95734 -5.60001,10.90134 l -0.896,7.168 q -0.0747,0.59734 -1.344,1.26934 -1.19466,0.59733 -2.912,0.97066 -1.64267,0.448 -3.285333,0.448 z"
         transform="matrix(0.26458333,0,0,0.26458333,66.757964,121.64032)"
         id="path33" /><path
         style="font-style:italic;font-weight:bold;font-size:74.6667px;font-family:Alegreya;-inkscape-font-specification:'Alegreya, Bold Italic';white-space:pre;fill:#f9f9f9;stroke:#f9f9f9;stroke-width:1.53071;stroke-linecap:round;stroke-linejoin:round;paint-order:stroke fill markers"
         d="m 72.61412,274.94924 q -5.973336,0 -10.378672,-2.38933 -4.330669,-2.464 -6.720003,-6.86934 -2.389334,-4.48 -2.389334,-10.75201 0,-6.72 1.941334,-12.17067 1.941334,-5.45067 5.600002,-9.33334 3.658669,-3.95733 8.736005,-6.048 5.077335,-2.09067 11.349338,-2.09067 2.240001,0 4.778669,0.29867 2.538668,0.224 4.778669,0.59733 2.240001,0.37334 3.584002,0.672 1.418667,0.224 1.418667,0.224 l 0.298667,0.97067 q 0,0 -0.597333,1.86667 -0.597334,1.792 -1.493335,5.00267 -0.821333,3.136 -1.568,7.01867 l -6.944004,0.448 q 0,0 0.149334,-0.896 0.149333,-0.97067 0.298667,-2.09067 0.224,-1.19467 0.224,-1.94133 0,-5.30134 -7.541337,-5.30134 -4.256002,0 -7.392004,2.464 -3.061335,2.464 -4.704002,7.24267 -1.642667,4.704 -1.642667,11.57334 0,7.168 2.613334,11.05067 2.613335,3.808 7.46667,3.808 2.688002,0 4.629336,-1.04533 1.941334,-1.04533 3.360002,-3.28533 1.493334,-2.31467 2.538667,-6.12267 l 7.01867,-0.52267 q 0,0 -0.373333,1.26933 -0.298667,1.26934 -0.821334,3.36 -0.522667,2.01601 -1.045334,4.48001 -0.522667,2.38933 -0.896,4.62933 l -0.746667,0.896 q 0,0 -2.016001,0.74667 -2.016001,0.74667 -5.525336,1.49333 -3.434668,0.74667 -7.989337,0.74667 z"
         transform="matrix(0.26458333,0,0,0.26458333,66.757964,121.64032)"
         id="text1-3-8-9" /><path
         style="font-style:italic;font-weight:bold;font-size:74.6667px;font-family:Alegreya;-inkscape-font-specification:'Alegreya, Bold Italic';white-space:pre;fill:#006497;fill-opacity:1;stroke:#f9f9f9;stroke-width:1.53071;stroke-linecap:round;stroke-linejoin:round;paint-order:stroke fill markers"
         d="m 281.6809,245.15723 q -1.71733,0 -3.28533,1.41866 -1.49334,1.344 -2.61334,3.80801 -1.04533,2.38933 -1.568,5.52533 5.15201,-1.71733 7.54134,-3.65867 2.38934,-2.016 2.38934,-4.40533 0,-2.688 -2.46401,-2.688 z"
         transform="matrix(0.26458333,0,0,0.26458333,66.757964,121.64032)"
         id="path43" /><path
         style="font-style:italic;font-weight:bold;font-size:74.6667px;font-family:Alegreya;-inkscape-font-specification:'Alegreya, Bold Italic';white-space:pre;fill:#006497;fill-opacity:1;stroke:#f9f9f9;stroke-width:1.53071;stroke-linecap:round;stroke-linejoin:round;paint-order:stroke fill markers"
         d="m 139.4409,245.15723 q -1.71734,0 -3.28534,1.41866 -1.49333,1.344 -2.61333,3.80801 -1.04533,2.38933 -1.568,5.52533 5.152,-1.71733 7.54134,-3.65867 2.38933,-2.016 2.38933,-4.40533 0,-2.688 -2.464,-2.688 z"
         transform="matrix(0.26458333,0,0,0.26458333,66.757964,121.64032)"
         id="path35" /><path
         style="font-style:italic;font-weight:bold;font-size:74.6667px;font-family:Alegreya;-inkscape-font-specification:'Alegreya, Bold Italic';white-space:pre;fill:#006497;fill-opacity:1;stroke:#f9f9f9;stroke-width:1.53071;stroke-linecap:round;stroke-linejoin:round;paint-order:stroke fill markers"
         d="m 162.8863,266.43724 q 0.82133,0 2.16533,-1.568 1.344,-1.64267 2.912,-4.33067 1.64267,-2.688 3.28534,-6.12267 1.71733,-3.43467 3.136,-7.16801 -1.568,-0.97066 -3.36,-1.568 -1.792,-0.59733 -3.13601,-0.59733 -1.71733,0 -3.28533,2.16533 -1.49333,2.16534 -2.464,5.60001 -0.97067,3.36 -0.97067,7.168 0,2.76267 0.448,4.62934 0.52267,1.792 1.26934,1.792 z"
         transform="matrix(0.26458333,0,0,0.26458333,66.757964,121.64032)"
         id="path37" /></g></g></svg>
